<svg xmlns="http://www.w3.org/2000/svg" xmlns:xlink="http://www.w3.org/1999/xlink" width="1000px" height="500px" viewBox="0 0 1000 500" zoomAndPan="disable" preserveAspectRatio="none" >

    <style type="text/css"><![CDATA[
		line
		{
			stroke: rgba(255,255,255,0.05);
			stroke-width: 1px;
		}
    ]]></style>

	<line x1="1100" y1="500" x2="-1000" y2="250" />
	<line x1="1100" y1="500" x2="-1000" y2="-100" />
	<line x1="1100" y1="500" x2="-1000" y2="-500" />
	<line x1="1100" y1="500" x2="-250" y2="-500" />
	<line x1="1100" y1="500" x2="300" y2="-500" />
	<line x1="1100" y1="500" x2="750" y2="-500" />

	<line x1="1750" y1="0" x2="750" y2="500" />
	<line x1="1500" y1="0" x2="500" y2="500" />
	<line x1="1150" y1="0" x2="150" y2="500" />
	<line x1="700" y1="0" x2="-300" y2="500" />
	<line x1="150" y1="0" x2="-850" y2="500" />

	<defs>
    <path id="lev0" fill="#069" d="M0 0,2 0,1 1.732 z" />
    <g id="lev1">
      <use xlink:href="#lev0" transform="matrix(0.5 0 0 0.5  0  0)" />
      <use xlink:href="#lev0" transform="matrix(0.5 0 0 0.5  1  0)" />
      <use xlink:href="#lev0" transform="matrix(0.5 0 0 0.5 0.5 0.866)" />
    </g>
    <g id="lev2">
      <use xlink:href="#lev1" transform="matrix(0.5 0 0 0.5  0  0)" />
      <use xlink:href="#lev1" transform="matrix(0.5 0 0 0.5  1  0)" />
      <use xlink:href="#lev1" transform="matrix(0.5 0 0 0.5 0.5 0.866)" />
    </g>
    <g id="lev3">
      <use xlink:href="#lev2" transform="matrix(0.5 0 0 0.5  0  0)" />
      <use xlink:href="#lev2" transform="matrix(0.5 0 0 0.5  1  0)" />
      <use xlink:href="#lev2" transform="matrix(0.5 0 0 0.5 0.5 0.866)" />
    </g>
    <g id="lev4">
      <use xlink:href="#lev3" transform="matrix(0.5 0 0 0.5  0  0)" />
      <use xlink:href="#lev3" transform="matrix(0.5 0 0 0.5  1  0)" />
      <use xlink:href="#lev3" transform="matrix(0.5 0 0 0.5 0.5 0.866)" />
    </g>
    <g id="lev5">
      <use xlink:href="#lev4" transform="matrix(0.5 0 0 0.5  0  0)" />
      <use xlink:href="#lev4" transform="matrix(0.5 0 0 0.5  1  0)" />
      <use xlink:href="#lev4" transform="matrix(0.5 0 0 0.5 0.5 0.866)" />
    </g>
  </defs>
  <use xlink:href="#lev5" transform="translate(300,0) scale(288)" />

</svg>


